# xmcd
#
# Track frame offsets:
#        150
#        28594
#        48530
#        60962
#        69486
#
# Disc length: 1172 seconds
#
# Revision: 0
# Processed by: cddbd v1.5PL3 Copyright (c) Steve Scherf et al.
# Submitted via: ExactAudioCopy v0.95a4
#
DISCID=3b049205
DTITLE=SpeedLearning - E - Vol.13 EDUCATION
DYEAR=1900
DGENRE=Stady
TTITLE0=American Schools
TTITLE1=At The Principal's Office
TTITLE2=Junichi's First Day Of School
TTITLE3=Ayumi's Halloween Party
TTITLE4=Homework
EXTD=
EXTT0=
EXTT1=
EXTT2=
EXTT3=
EXTT4=
PLAYORDER=
